<svg xmlns="http://www.w3.org/2000/svg" width="16" height="16" viewBox="0 0 16 16">
    <g fill="none" fill-rule="evenodd">
        <g fill="#7A9998">
            <g>
                <g>
                    <g>
                        <path d="M.24 8.797l.003.016c.118 1.136.488 2.232 1.082 3.207.072.119.14.24.217.354l.062.082C3.436 15.11 6.721 16.35 9.85 15.57c-.389-.163-.704-.465-.883-.847-2.118.324-4.263-.387-5.767-1.912 0-.034.006-.05.056-.087.06-.041.122-.079.186-.113.126-.073.22-.19.266-.327.044-.143.03-.297-.038-.43l-.068-.102c-.258-.286-.561-.527-.898-.714l-.477-.31c-.12-.08-.174-.128-.186-.16 0-.057.006-.114.016-.17.039-.236.021-.478-.051-.706-.084-.25-.187-.495-.308-.73l-.05-.104c-.092-.178-.176-.36-.252-.545-.045-.12-.103-.237-.171-.346l-.021-.034c.016-1.723.689-3.376 1.881-4.62.135.003.28.009.473.028.297-.003.555-.204.632-.49.033-.09.054-.126.064-.126.003 0 .005.002.007.008.068.01.134.027.198.052.059.019.119.033.18.043l.106.01c.16.001.313-.068.417-.19.158-.191.411-.543.579-.792.065-.097.114-.204.146-.316.189-.061.38-.114.574-.158-.107.136-.174.3-.192.472-.007.2.097.387.269.487.166.095.37.094.535-.002.239-.145.5-.249.774-.305l.51.026c.062 0 .124-.004.186-.013.142-.022.271-.092.366-.2l.108-.141.096-.153c.049-.082.106-.158.171-.228.52.1 1.026.262 1.508.481-.075.059-.145.124-.208.196-.038.054-.071.112-.1.171l-.14.31c-.021.042-.045.082-.072.12-.032.043-.06.089-.084.137-.089.225-.036.48.134.652.116.114.238.22.366.32l-.006.004c-.06.042-.117.089-.17.14l-.098.092c-.035-.126-.112-.237-.218-.313-.004-.031-.01-.063-.02-.093-.046-.142-.13-.27-.243-.367-.11-.091-.25-.136-.392-.124-.02 0-.039 0-.061.002-.168.033-.31.142-.384.296l-.053.118c-.094.269.034.565.294.68.008.164.086.316.215.417.024.015.045.032.07.045-.109.173-.122.39-.034.575.005.015.015.04.024.07h-.006c-.077-.01-.153-.026-.228-.049-.043-.008-.087-.014-.131-.017-.22-.003-.422.126-.512.328-.034.084-.057.172-.069.262-.021.166-.03.333-.028.5-.006.154.052.304.16.414-.04.038-.077.078-.112.12l-.058.07c-.035.034-.074.065-.116.091-.235.136-.418.347-.517.6l-.09.11-.137.05c-.392.191-.708.508-.899.9-.065.122-.116.251-.151.385-.023.102-.033.206-.03.31.001.137-.047.27-.137.375-.087.076-.147.178-.172.29-.015.082-.02.165-.012.248.016.152.065.298.146.428.043.066.096.125.156.175l.134.13c.07.059.125.134.16.218.075.283.232.537.452.73.226.211.52.336.828.352.106-.004.21-.014.315-.03l.242-.035v-.788l-.352.05c-.068.011-.137.02-.206.023-.124-.02-.239-.08-.326-.17-.1-.095-.171-.217-.204-.352-.072-.215-.198-.408-.367-.56l-.137-.131c-.023-.022-.042-.049-.054-.078.203-.247.314-.556.314-.875-.003-.045 0-.09.01-.135.026-.079.058-.156.097-.229.105-.196.255-.364.438-.491l.158-.056c.143-.052.267-.144.358-.266l.09-.11c.043-.058.078-.122.104-.19.027-.07.04-.102.235-.238.064-.041.125-.088.18-.141.031-.028.06-.058.088-.09l.104-.12c.055-.045.103-.098.142-.157.149.179.37.282.603.282.057 0 .114-.007.17-.019.163-.02.326-.032.49-.033.065.002.12.005.164.008.012.066.032.13.06.19.27.412.686.707 1.164.826.073.022.149.034.225.034.243 0 .473-.114.62-.307.052.022.106.04.161.055.065.017.132.026.2.026h.027c.154.005.307-.02.451-.073.099-.04.163-.064.257-.094.203-.062.372-.204.468-.393.096-.189.11-.409.041-.609-.021-.116-.058-.228-.11-.334-.097-.22-.29-.383-.522-.442-.127-.036-.258-.055-.39-.056-.186-.179-.45-.254-.702-.2-.023-.052-.05-.102-.08-.15-.033-.049-.068-.095-.106-.14-.088-.102-.181-.199-.28-.29l-.087-.073c-.256-.208-.615-.232-.897-.061l-.084-.057c-.084-.053-.178-.09-.276-.108-.07-.011-.142-.018-.214-.02-.038 0-.076.002-.114.006-.083-.03-.17-.044-.258-.044-.031 0-.062.002-.093.006l-.032-.097c.031-.067.053-.137.064-.21h.022c.201 0 .395-.077.54-.216.011-.01.09-.084.111-.106.122.073.261.112.403.112.239.02.476-.047.67-.188.067-.054.124-.118.17-.19l.056-.088c.178-.297.221-.654.12-.985-.044-.148-.13-.28-.25-.378 1.893 1.498 2.844 3.892 2.496 6.281.379.18.678.493.84.88.021-.083.047-.165.065-.25l.004-.009.002-.015c.024-.117.037-.238.055-.357.067-.403.102-.81.105-1.218v-.003c-.002-.11-.007-.22-.016-.33-.006-.131-.009-.271-.021-.401v-.011c-.053-.56-.167-1.112-.34-1.647-.02-.061-.045-.12-.066-.18-.066-.193-.14-.384-.22-.571-.04-.089-.084-.174-.126-.26-.073-.154-.152-.305-.235-.453-.055-.096-.113-.19-.172-.283-.084-.134-.171-.265-.263-.394-.066-.092-.134-.182-.203-.271-.1-.127-.204-.25-.31-.37-.071-.08-.141-.16-.215-.236-.13-.133-.264-.26-.402-.384-.06-.054-.118-.111-.18-.164C11.812 1.01 10.302.379 8.71.236 8.68.233 8.65.234 8.62.23 8.414.212 8.207.202 8 .2c-.064 0-.127.008-.19.01H7.8c-.91.022-1.81.204-2.658.538l-.024.007-.022.01c-.815.328-1.568.791-2.228 1.37l-.06.055c-.204.183-.398.376-.582.579l-.079.086C1.03 4.122.357 5.719.23 7.403c-.018.207-.03.405-.03.593V8c0 .266.013.532.04.796v.001zM9.42 6.16c0-.053.002-.1.004-.144l.058.01c-.025.042-.046.087-.062.134zm1.143-.148l-.11-.204.196.097c.051-.037.113-.058.176-.058.024 0 .048.002.072.006.06.039.117.081.172.127.096.07.212.106.331.105.083.004.165-.015.238-.053.061-.028.117-.066.165-.114l.049.04c.073.066.142.136.207.21.044.055.06.08.06.08.018.122.063.238.132.34.103.16.287.251.477.235.102-.005.2-.037.284-.094.133.152.329.232.53.217.07 0 .14.011.208.032.04.089.068.182.086.277-.101.031-.201.067-.299.107-.047.02-.097.03-.148.028l-.06-.002c-.04-.012-.08-.027-.117-.047-.065-.038-.135-.063-.209-.076h-.015c-.043-.013-.088-.02-.133-.023-.232.001-.436.15-.508.371-.262-.065-.499-.206-.68-.406.02-.287-.175-.545-.456-.605-.153-.033-.31-.049-.467-.047-.182 0-.363.01-.544.032-.041.004-.082.01-.122.02.018-.024.034-.05.048-.076.027-.047.05-.09.038-.105.036-.042.067-.088.092-.137.124-.064.23-.16.307-.277zm-7.738 6.062l-.01.006c-.05.044-.094.092-.134.145-.131-.165-.255-.336-.371-.513.178.111.35.232.515.362zm8.331-9.497l.039-.083c.047-.06.108-.109.177-.142l.201.07c-.121.008-.239.045-.344.106-.025.015-.05.032-.073.05v-.001zm.55 1.056l-.056.087c-.002.003-.03.018-.167.018h-.015c.123-.135.18-.317.157-.498l-.002-.039c.039.026.08.054.11.077.044.117.034.246-.027.355zm3.644 10.951l-.703.71L11 11.687V14h-1v-4h4v1h-2.272l3.622 3.584z" transform="translate(-20.000000, -300.000000) translate(8.000000, 168.000000) translate(0.000000, 120.000000) translate(12.000000, 12.000000)"/>
                    </g>
                </g>
            </g>
        </g>
    </g>
</svg>
