<svg xmlns="http://www.w3.org/2000/svg" width="16" height="19" viewBox="0 0 16 19">
    <g fill="none" fill-rule="evenodd">
        <g>
            <g>
                <g>
                    <g>
                        <g>
                            <path fill="#AFEDEC" fill-rule="nonzero" d="M15.833 8.647L4.607.075c-.119-.09-.273-.1-.4-.026C4.08.123 4 .269 4 .429V17.57c0 .16.08.306.207.38.057.033.119.049.18.049.077 0 .154-.026.22-.076l11.226-8.571C15.938 9.273 16 9.14 16 9s-.063-.273-.167-.353z" transform="translate(-217.000000, -701.000000) translate(8.000000, 406.000000) translate(24.000000, 230.000000) translate(185.000000, 47.000000) translate(0.000000, 18.000000) translate(10.000000, 9.000000) scale(-1, 1) translate(-10.000000, -9.000000)"/>
                            <path stroke="#AFEDEC" stroke-linecap="square" d="M1.5 1.2L1.5 18" transform="translate(-217.000000, -701.000000) translate(8.000000, 406.000000) translate(24.000000, 230.000000) translate(185.000000, 47.000000) translate(0.000000, 18.000000) translate(1.500000, 9.600000) scale(-1, 1) translate(-1.500000, -9.600000)"/>
                        </g>
                    </g>
                </g>
            </g>
        </g>
    </g>
</svg>
